<svg width="15" height="16" viewBox="0 0 15 16" fill="none" xmlns="http://www.w3.org/2000/svg">
<g id="Bell">
<path id="Shape" fillRule="evenodd" clipRule="evenodd" d="M8.60124 1.75086C8.60124 2.25459 8.26278 2.67927 7.80087 2.80989C10.1459 2.9647 12 4.91582 12 7.29999V10.75C12 11.5563 12.0329 12.2074 12.7236 12.5528C12.931 12.6565 13.0399 12.8892 12.9866 13.1149C12.9333 13.3406 12.7319 13.5 12.5 13.5H8.16144C8.36904 13.6832 8.49997 13.9513 8.49997 14.25C8.49997 14.8023 8.05226 15.25 7.49997 15.25C6.94769 15.25 6.49997 14.8023 6.49997 14.25C6.49997 13.9513 6.63091 13.6832 6.83851 13.5H2.49999C2.2681 13.5 2.06664 13.3406 2.01336 13.1149C1.96009 12.8892 2.06897 12.6565 2.27638 12.5528C2.96708 12.2074 2.99999 11.5563 2.99999 10.75V7.29999C2.99999 4.91537 4.85481 2.96396 7.20042 2.8098C6.73867 2.67908 6.40036 2.25448 6.40036 1.75086C6.40036 1.1431 6.89304 0.650421 7.5008 0.650421C8.10855 0.650421 8.60124 1.1431 8.60124 1.75086ZM7.49999 3.79999C5.56699 3.79999 3.99999 5.36699 3.99999 7.29999V10.75L4.00002 10.8009C4.0005 11.2463 4.00121 11.9084 3.69929 12.5H11.3007C10.9988 11.9084 10.9995 11.2463 11 10.8009L11 10.75V7.29999C11 5.36699 9.43299 3.79999 7.49999 3.79999Z" fill="black"/>
</g>
</svg>
