<svg width="15" height="16" viewBox="0 0 15 16" fill="none" xmlns="http://www.w3.org/2000/svg">
<g id="Question Mark Circled">
<path id="Shape" fillRule="evenodd" clipRule="evenodd" d="M0.877045 7.99978C0.877045 4.3421 3.84219 1.37695 7.49988 1.37695C11.1575 1.37695 14.1227 4.3421 14.1227 7.99978C14.1227 11.6574 11.1575 14.6226 7.49988 14.6226C3.84219 14.6226 0.877045 11.6574 0.877045 7.99978ZM7.49988 2.32695C4.36686 2.32695 1.82704 4.86677 1.82704 7.99978C1.82704 11.1328 4.36686 13.6726 7.49988 13.6726C10.6329 13.6726 13.1727 11.1328 13.1727 7.99978C13.1727 4.86677 10.6329 2.32695 7.49988 2.32695ZM8.2499 11.0001C8.2499 11.4143 7.91411 11.7501 7.4999 11.7501C7.08568 11.7501 6.7499 11.4143 6.7499 11.0001C6.7499 10.5858 7.08568 10.2501 7.4999 10.2501C7.91411 10.2501 8.2499 10.5858 8.2499 11.0001ZM6.05 6.75006C6.05 6.07217 6.63508 5.42506 7.5 5.42506C8.36493 5.42506 8.95 6.07217 8.95 6.75006C8.95 7.24124 8.67999 7.49218 8.21444 7.775C8.16248 7.80657 8.10255 7.84137 8.03844 7.87861L8.03838 7.87864C7.85518 7.98503 7.63785 8.11125 7.47446 8.23855C7.23211 8.42738 6.95 8.73204 6.95 9.20006C6.95 9.50382 7.19625 9.75006 7.5 9.75006C7.80237 9.75006 8.04775 9.50607 8.04999 9.20423L8.05053 9.20336C8.05921 9.18967 8.0849 9.15741 8.15055 9.10626C8.25204 9.02718 8.36505 8.96169 8.51564 8.87442L8.51568 8.87439C8.59419 8.82889 8.68293 8.77747 8.78556 8.71512C9.32001 8.39044 10.05 7.85388 10.05 6.75006C10.05 5.42795 8.93508 4.32506 7.5 4.32506C6.06493 4.32506 4.95 5.42795 4.95 6.75006C4.95 7.05382 5.19625 7.30006 5.5 7.30006C5.80376 7.30006 6.05 7.05382 6.05 6.75006Z" fill="black"/>
</g>
</svg>
