<svg width="20" height="20" viewBox="0 0 20 20" fill="none" xmlns="http://www.w3.org/2000/svg">
<g id="search-sm">
<path id="Icon (Stroke)" fillRule="evenodd" clipRule="evenodd" d="M8.33335 3.33329C5.57193 3.33329 3.33335 5.57187 3.33335 8.33329C3.33335 11.0947 5.57193 13.3333 8.33335 13.3333C11.0948 13.3333 13.3334 11.0947 13.3334 8.33329C13.3334 5.57187 11.0948 3.33329 8.33335 3.33329ZM1.66669 8.33329C1.66669 4.65139 4.65146 1.66663 8.33335 1.66663C12.0153 1.66663 15 4.65139 15 8.33329C15 9.87387 14.4775 11.2924 13.5999 12.4213L18.0893 16.9107C18.4147 17.2361 18.4147 17.7638 18.0893 18.0892C17.7638 18.4147 17.2362 18.4146 16.9108 18.0892L12.4214 13.5998C11.2925 14.4774 9.87397 15 8.33335 15C4.65146 15 1.66669 12.0152 1.66669 8.33329Z" fill="#A9A9A9"/>
</g>
</svg>
